# xmcd
#
# Track frame offsets: 
#        150
#        19371
#        62372
#        84800
#        115691
#        150647
#
# Disc length: 2430 seconds
#
# Revision: 0
# Processed by: cddbd v1.5.2PL0 Copyright (c) Steve Scherf et al.
# Submitted via: ExactAudioCopyFreeDBPlugin 1.0
#
DISCID=38097c06
DTITLE=Danny Bryant - BIG - Live in Europe [CD2]
DYEAR=2017
DGENRE=Blues
TTITLE0=On The Rocks
TTITLE1=As The Years Go Passing By
TTITLE2=Take Me Higher
TTITLE3=Unchained
TTITLE4=Painkiller
TTITLE5=Stop Breaking Down
EXTD=
EXTT0=
EXTT1=
EXTT2=
EXTT3=
EXTT4=
EXTT5=
PLAYORDER=
